<svg width="48" height="48" viewBox="0 0 48 48" fill="none" xmlns="http://www.w3.org/2000/svg">
<circle cx="24" cy="24" r="24" fill="white"/>
<path d="M37.7686 31.4397L30.3276 23.9992L37.7662 16.5596C37.8395 16.4863 37.8977 16.3993 37.9373 16.3036C37.977 16.2078 37.9974 16.1052 37.9974 16.0016C37.9974 15.8979 37.977 15.7953 37.9373 15.6996C37.8977 15.6038 37.8395 15.5168 37.7662 15.4436L32.5552 10.2312C32.4072 10.0832 32.2064 10 31.9971 10C31.7877 10 31.5869 10.0832 31.4389 10.2312L23.9991 17.6708L16.5604 10.2312C16.2645 9.93482 15.7404 9.93482 15.4441 10.2312L10.2319 15.4428C10.084 15.5909 10.001 15.7917 10.001 16.001C10.001 16.2103 10.084 16.411 10.2319 16.5592L17.6717 23.9992L10.2307 31.4401C10.083 31.5883 10 31.789 10 31.9983C10 32.2076 10.083 32.4083 10.2307 32.5565L15.4421 37.7685C15.5153 37.8419 15.6023 37.9001 15.6981 37.9398C15.7939 37.9796 15.8966 38 16.0003 38C16.104 38 16.2066 37.9796 16.3024 37.9398C16.3982 37.9001 16.4852 37.8419 16.5585 37.7685L23.9991 30.3276L31.44 37.7681C31.5944 37.922 31.7955 37.9994 31.9982 37.9994C32.201 37.9994 32.4025 37.922 32.5568 37.7681L37.769 32.5561C37.917 32.408 38.0001 32.2072 38 31.9978C37.9999 31.7885 37.9167 31.5877 37.7686 31.4397V31.4397Z" fill="black"/>
</svg>
