<svg width="81" height="81" viewBox="0 0 81 81" fill="none" xmlns="http://www.w3.org/2000/svg">
<path opacity="0.5" d="M40.5 0C32.4899 0 24.6596 2.37528 17.9994 6.82548C11.3392 11.2757 6.14825 17.6009 3.0829 25.0013C0.017548 32.4017 -0.784487 40.5449 0.778214 48.4011C2.34092 56.2574 6.19817 63.4738 11.8622 69.1378C17.5262 74.8018 24.7426 78.6591 32.5989 80.2218C40.4551 81.7845 48.5983 80.9824 55.9987 77.9171C63.3991 74.8518 69.7243 69.6608 74.1745 63.0006C78.6247 56.3404 81 48.5101 81 40.5C81 35.1815 79.9524 29.915 77.9171 25.0013C75.8818 20.0876 72.8986 15.6229 69.1378 11.8622C65.3771 8.1014 60.9124 5.11819 55.9987 3.08288C51.085 1.04756 45.8185 0 40.5 0V0ZM40.5 72.9C34.0919 72.9 27.8277 70.9997 22.4995 67.4396C17.1714 63.8794 13.0186 58.8193 10.5663 52.8989C8.11404 46.9786 7.47241 40.464 8.72257 34.1791C9.97274 27.8941 13.0585 22.121 17.5898 17.5897C22.121 13.0585 27.8941 9.97272 34.1791 8.72256C40.4641 7.47239 46.9786 8.11402 52.899 10.5663C58.8193 13.0186 63.8795 17.1714 67.4396 22.4995C70.9998 27.8277 72.9 34.0919 72.9 40.5C72.9 49.093 69.4864 57.3341 63.4103 63.4102C57.3341 69.4864 49.093 72.9 40.5 72.9V72.9Z" fill="white"/>
<path d="M72.8 41H81C81 35.6158 79.9395 30.2843 77.8791 25.31C75.8186 20.3356 72.7986 15.8158 68.9914 12.0086C65.1842 8.20142 60.6644 5.18138 55.69 3.12094C50.7157 1.0605 45.3842 0 40 0V8.2C48.6991 8.2 57.0419 11.6557 63.1931 17.8069C69.3443 23.9581 72.8 32.3009 72.8 41Z" fill="white"/>
</svg>
